<svg width="100" height="25" viewBox="0 0 100 25" fill="none" xmlns="http://www.w3.org/2000/svg">
    <path d="M81.7738 0.948975H77.6626V5.06012H81.7738V0.948975Z" fill="white" />
    <path fill-rule="evenodd" clip-rule="evenodd"
        d="M65.769 11.5049H62.1587V18.1856C62.1587 18.7424 62.297 19.1498 62.5754 19.4058C62.8538 19.6637 63.2612 19.8132 63.7957 19.8562C64.3301 19.8767 64.9954 19.8674 65.7877 19.8244V23.5824C62.9828 23.9038 60.9814 23.6459 59.7817 22.8125C58.6044 21.9566 58.0158 20.4149 58.0158 18.1874V11.5068H55.2221V7.52273H58.0158V4.27866L62.1587 3.02663V7.5246H68.5627V4.28053L72.7056 3.0285V7.52647H76.3347V11.5105H72.7056V18.1912C72.7056 18.748 72.8439 19.1554 73.1224 19.4114C73.4008 19.6693 73.8082 19.8188 74.3426 19.8618C74.8771 19.8823 75.5423 19.873 76.3328 19.83V23.588C73.5279 23.9094 71.5265 23.6515 70.3268 22.8181C69.1495 21.9622 68.5609 20.4205 68.5609 18.193V11.5124H65.7672L65.769 11.5049Z"
        fill="white" />
    <path d="M81.7929 7.51884H77.6499V23.5804H81.7929V7.51884Z" fill="white" />
    <path fill-rule="evenodd" clip-rule="evenodd"
        d="M91.5536 7.10185C86.8893 7.10185 83.107 10.8841 83.107 15.5503C83.107 20.2164 86.8893 23.9987 91.5536 23.9987C96.2178 23.9987 100 20.2164 100 15.5503C100 10.8841 96.2197 7.10185 91.5536 7.10185ZM91.5386 20.0165C89.0644 20.0165 87.0574 18.0095 87.0574 15.5353C87.0574 13.0611 89.0644 11.0542 91.5386 11.0542C94.0128 11.0542 96.0179 13.0593 96.0179 15.5353C96.0179 18.0113 94.0128 20.0165 91.5386 20.0165Z"
        fill="white" />
    <path fill-rule="evenodd" clip-rule="evenodd"
        d="M49.7911 7.48681V8.37818C48.4961 7.5709 46.9675 7.10185 45.3286 7.10185C40.6643 7.10185 36.8821 10.8841 36.8821 15.5503C36.8821 20.2164 40.6643 23.9987 45.3286 23.9987C46.9675 23.9987 48.4961 23.5315 49.7911 22.7223V23.6137H53.9022V7.48681H49.7911ZM45.3137 20.0165C42.8395 20.0165 40.8325 18.0095 40.8325 15.5353C40.8325 13.0611 42.8395 11.0542 45.3137 11.0542C47.7878 11.0542 49.7519 13.02 49.7911 15.4606V15.6082C49.7519 18.0487 47.7636 20.0146 45.3137 20.0146V20.0165Z"
        fill="white" />
    <path
        d="M29.7539 17.2064L27.2423 13.1868C27.2423 13.1868 27.233 13.17 27.2274 13.1625L27.0293 12.8467C26.6556 12.2469 26.009 11.8881 25.3026 11.8862L21.2569 11.8731L20.9747 12.3253L16.1404 20.0618L15.8732 20.4897L17.8988 23.7263C18.2726 24.328 18.9191 24.6868 19.6311 24.6868H25.3008C25.9997 24.6868 26.6612 24.3187 27.0312 23.7282L27.2311 23.4086C27.2311 23.4086 27.2386 23.3993 27.2405 23.3956L29.7558 19.3704C30.1687 18.7126 30.1687 17.8623 29.7558 17.2064H29.7539ZM28.9877 18.8901L26.4724 22.9153C26.4612 22.934 26.4481 22.9489 26.4369 22.9639C26.3491 23.0629 26.2351 23.076 26.1847 23.076C26.1267 23.076 25.9847 23.0592 25.8931 22.9134L23.3779 18.8882C23.3498 18.8434 23.3255 18.7967 23.3031 18.7462C23.2807 18.6976 23.2639 18.649 23.2489 18.5986C23.1929 18.3968 23.1929 18.18 23.2489 17.9782C23.277 17.8791 23.3199 17.7801 23.376 17.6904L25.8875 13.6689C25.8875 13.6689 25.8913 13.6633 25.8931 13.6596C25.9529 13.5699 26.0277 13.5288 26.0931 13.5157C26.1193 13.5082 26.1417 13.5064 26.1604 13.5026C26.1697 13.5026 26.1791 13.5026 26.1884 13.5026C26.2463 13.5026 26.3902 13.5213 26.4799 13.6671L28.9915 17.6867C29.2213 18.0529 29.2213 18.5238 28.9915 18.8901H28.9877Z"
        fill="white" />
    <path
        d="M22.3217 7.48042C22.7328 6.82077 22.7328 5.97238 22.3217 5.31646L19.8101 1.29688L19.6008 0.958645C19.2252 0.358791 18.5787 0 17.8685 0H12.1989C11.4907 0 10.8441 0.358791 10.4666 0.960514L0.313942 17.2089C0.110254 17.534 0 17.9097 0 18.2909C0 18.6721 0.108385 19.0477 0.312074 19.371L3.03478 23.7307C3.41038 24.3324 4.05696 24.6893 4.76519 24.6893H10.4348C11.1468 24.6893 11.7934 24.3305 12.1671 23.7288L12.3746 23.3999C12.3746 23.3999 12.3746 23.3999 12.3746 23.3962C12.3746 23.3962 12.3783 23.3906 12.3783 23.3887L14.4021 20.1521L20.4006 10.5526L22.3179 7.48229L22.3217 7.48042ZM21.7293 6.39844C21.7293 6.60587 21.6714 6.81516 21.5536 7.00016L11.6084 22.9178C11.5187 23.0617 11.3748 23.0785 11.3169 23.0785C11.2589 23.0785 11.1169 23.0617 11.0254 22.9178L8.51195 18.8907C8.28396 18.5263 8.28396 18.0573 8.51195 17.6892L18.4572 1.77527C18.5469 1.62951 18.6908 1.61269 18.7487 1.61269C18.8066 1.61269 18.9505 1.62951 19.0421 1.77714L21.5536 5.79672C21.6714 5.98172 21.7293 6.19102 21.7293 6.39844Z"
        fill="white" />
</svg>